# xmcd
#
# Track frame offsets: 
#        150
#        17146
#        39543
#        52814
#        67470
#        80326
#        105141
#        129458
#        160994
#        175693
#        194639
#        209248
#        225568
#        244035
#        254689
#        273943
#        312383
#        329081
#
# Disc length: 4532 seconds
#
# Revision: 0
# Processed by: cddbd v1.5.2PL0 Copyright (c) Steve Scherf et al.
# Submitted via: ExactAudioCopy v0.99pb5
#
DISCID=0911b212
DTITLE=Various  - Cave of Clear Light - The Pye and Dawn Records Under
DTITLE=ground Trip 1967-1975 [CD1]
DYEAR=1900
DGENRE=
TTITLE0=The Bystanders - Cave of Clear Light
TTITLE1=Donovan - Season of the Witch
TTITLE2=Episode Six - Morning Dew
TTITLE3=Status Quo - Paradise Flat
TTITLE4=Neo Maya - Ufo
TTITLE5=Man - The Future Hides its Face
TTITLE6=Blonde On Blonde - Ride with Captain Max
TTITLE7=Velvett Fogg - Yellow Cave Women
TTITLE8=Donovan - Hurdy Gurdy Man
TTITLE9=Woody Kern - Tell You I'm Gone
TTITLE10=The Mooche - Hot Smoke and Sassafras
TTITLE11=Blonde On Blonde - All Day, All Night
TTITLE12=Status Quo - Mister Mind Detector
TTITLE13=Pesky Gee - Peace of Mind
TTITLE14=John Kongos - Confusions About a Goldfish
TTITLE15=Man - It Is As It Must Be
TTITLE16=Fire - Flies Like a Bird
TTITLE17=Trader Horne - Velvet to Atone
EXTD=
EXTT0=
EXTT1=
EXTT2=
EXTT3=
EXTT4=
EXTT5=
EXTT6=
EXTT7=
EXTT8=
EXTT9=
EXTT10=
EXTT11=
EXTT12=
EXTT13=
EXTT14=
EXTT15=
EXTT16=
EXTT17=
PLAYORDER=
